<?xml version="1.0" encoding="iso-8859-1"?>
<!-- Generator: Adobe Illustrator 19.2.0, SVG Export Plug-In . SVG Version: 6.00 Build 0)  -->
<svg version="1.1" id="Layer_1" xmlns="http://www.w3.org/2000/svg" xmlns:xlink="http://www.w3.org/1999/xlink" x="0px" y="0px"
	 viewBox="0 0 20 20" style="enable-background:new 0 0 20 20;" xml:space="preserve">
<title>Fill 6092 + Fill 6093</title>
<desc>Created with Sketch.</desc>
<path style="fill:#06C279;" d="M10.1,0.3c-5.2,0-9.5,4.3-9.5,9.5s4.3,9.5,9.5,9.5c5.2,0,9.5-4.3,9.5-9.5C19.6,4.5,15.3,0.3,10.1,0.3
	z M15.224,5.691l-0.016,0.027l-5.4,8.1c-0.152,0.16-0.303,0.312-0.508,0.312c-0.113,0-0.303,0-0.476-0.173l-3.601-3.6
	c-0.169-0.17-0.25-0.398-0.215-0.612C5.033,9.587,5.121,9.456,5.25,9.376c0.166-0.152,0.381-0.225,0.584-0.189
	c0.156,0.025,0.287,0.111,0.366,0.239l2.958,2.958l4.832-7.441c0.074-0.152,0.253-0.282,0.453-0.314
	c0.174-0.029,0.352,0.02,0.489,0.133c0.193,0.082,0.285,0.219,0.329,0.324C15.337,5.267,15.322,5.493,15.224,5.691z"/>
</svg>
